<svg width="94" height="94" viewBox="0 0 94 94" fill="none" xmlns="http://www.w3.org/2000/svg">
<path d="M19.5833 27.4167H73.5941C74.6885 27.4167 75.7707 27.6461 76.771 28.09C77.7714 28.5339 78.6676 29.1825 79.4019 29.9939C80.1362 30.8054 80.6924 31.7617 81.0345 32.8012C81.3766 33.8408 81.4971 34.9405 81.3882 36.0294L79.0382 59.5294C78.845 61.4623 77.9404 63.2545 76.5001 64.558C75.0598 65.8614 73.1866 66.5833 71.2441 66.5834H33.8399C32.0284 66.5841 30.2725 65.9569 28.8714 64.8086C27.4703 63.6602 26.5105 62.0618 26.1554 60.2854L19.5833 27.4167Z" stroke="black" stroke-width="4" stroke-linejoin="round"/>
<path d="M19.5832 27.4167L16.4108 14.7149C16.1986 13.868 15.7095 13.1162 15.0211 12.579C14.3328 12.0418 13.4847 11.75 12.6116 11.75H7.83325" stroke="black" stroke-width="4" stroke-linecap="round" stroke-linejoin="round"/>
<path d="M31.3333 82.25H39.1666" stroke="black" stroke-width="4" stroke-linecap="round" stroke-linejoin="round"/>
<path d="M62.6665 82.25H70.4998" stroke="black" stroke-width="4" stroke-linecap="round" stroke-linejoin="round"/>
</svg>
